<!DOCTYPE svg PUBLIC "-//W3C//DTD SVG 1.1//EN" "http://www.w3.org/Graphics/SVG/1.1/DTD/svg11.dtd">
<!-- Uploaded to: SVG Repo, www.svgrepo.com, Transformed by: SVG Repo Mixer Tools -->
<svg height="64px" width="64px" version="1.1" id="Capa_1" xmlns="http://www.w3.org/2000/svg" xmlns:xlink="http://www.w3.org/1999/xlink" viewBox="0 0 265.934 265.934" xml:space="preserve" fill="#000000">
<g id="SVGRepo_bgCarrier" stroke-width="0"/>
<g id="SVGRepo_tracerCarrier" stroke-linecap="round" stroke-linejoin="round"/>
<g id="SVGRepo_iconCarrier"> <g> <path style="fill:#d4af37;" d="M132.967,156.23c28.512,0,51.708-23.196,51.708-51.708c0-28.511-23.196-51.707-51.708-51.707 c-28.512,0-51.708,23.196-51.708,51.707C81.259,133.034,104.455,156.23,132.967,156.23z M132.967,67.815 c20.241,0,36.708,16.467,36.708,36.707c0,20.241-16.467,36.708-36.708,36.708c-20.241,0-36.708-16.467-36.708-36.708 C96.259,84.282,112.726,67.815,132.967,67.815z"/> <path style="fill:#d4af37;" d="M132.967,125.455c11.542,0,20.933-9.39,20.933-20.933c0-11.542-9.39-20.932-20.933-20.932 c-11.542,0-20.932,9.39-20.932,20.932C112.035,116.065,121.425,125.455,132.967,125.455z"/> <path style="fill:#d4af37;" d="M252.308,242.637l-19.995-48.922c-3.686-9.018-13.607-16.232-23.427-17.428 c17.72-18.736,28.603-44.002,28.603-71.764C237.489,46.889,190.6,0,132.967,0S28.444,46.889,28.444,104.522 c0,27.762,10.883,53.028,28.603,71.764c-9.819,1.196-19.74,8.411-23.426,17.428l-19.995,48.922 c-2.35,5.749-1.953,11.643,1.088,16.171c3.041,4.528,8.347,7.125,14.558,7.125h207.391c6.21,0,11.517-2.597,14.558-7.125 C254.261,254.28,254.658,248.385,252.308,242.637z M132.967,15c49.363,0,89.522,40.16,89.522,89.522s-40.16,89.522-89.522,89.522 s-89.523-40.16-89.523-89.522S83.604,15,132.967,15z M238.767,250.445c-0.054,0.08-0.637,0.488-2.105,0.488H29.271 c-1.468,0-2.051-0.408-2.105-0.488c-0.054-0.081-0.212-0.775,0.344-2.134l19.995-48.922c1.775-4.342,7.663-8.297,12.354-8.297 h14.597c16.706,11.328,36.849,17.952,58.51,17.952c21.661,0,41.803-6.624,58.51-17.952h14.598c4.691,0,10.58,3.955,12.355,8.297 l19.995,48.922C238.978,249.671,238.821,250.365,238.767,250.445z"/> </g> </g>
</svg>