<svg width="27" height="25" viewBox="0 0 27 25" fill="none" xmlns="http://www.w3.org/2000/svg">
<path d="M21.9375 8.75V6.25C21.9375 2.75 18.225 0 13.5 0C8.775 0 5.0625 2.75 5.0625 6.25V8.75C2.19375 8.75 0 10.375 0 12.5V21.25C0 23.375 2.19375 25 5.0625 25H21.9375C24.8062 25 27 23.375 27 21.25V12.5C27 10.375 24.8062 8.75 21.9375 8.75ZM8.4375 6.25C8.4375 4.125 10.6313 2.5 13.5 2.5C16.3687 2.5 18.5625 4.125 18.5625 6.25V8.75H8.4375V6.25ZM15.3563 16.875L15.1875 17V18.75C15.1875 19.5 14.5125 20 13.5 20C12.4875 20 11.8125 19.5 11.8125 18.75V17C10.8 16.25 10.6312 15.125 11.6437 14.375C12.6562 13.625 14.175 13.5 15.1875 14.25C16.2 14.875 16.3688 16.125 15.3563 16.875Z" fill="#D4AF37"/>
</svg>
