<svg width="32" height="24" viewBox="0 0 32 24" fill="none" xmlns="http://www.w3.org/2000/svg">
<path fill-rule="evenodd" clip-rule="evenodd" d="M0 3.27273C0 2.40475 0.337142 1.57232 0.937258 0.95856C1.53737 0.344804 2.35131 0 3.2 0H28.8C29.6487 0 30.4626 0.344804 31.0627 0.95856C31.6629 1.57232 32 2.40475 32 3.27273V20.7273C32 21.5953 31.6629 22.4277 31.0627 23.0414C30.4626 23.6552 29.6487 24 28.8 24H3.2C2.35131 24 1.53737 23.6552 0.937258 23.0414C0.337142 22.4277 0 21.5953 0 20.7273L0 3.27273ZM6.4 8.72727C6.4 7.56996 6.84952 6.46006 7.64968 5.64172C8.44983 4.82338 9.53508 4.36364 10.6667 4.36364C11.7983 4.36364 12.8835 4.82338 13.6837 5.64172C14.4838 6.46006 14.9333 7.56996 14.9333 8.72727C14.9333 9.88458 14.4838 10.9945 13.6837 11.8128C12.8835 12.6312 11.7983 13.0909 10.6667 13.0909C9.53508 13.0909 8.44983 12.6312 7.64968 11.8128C6.84952 10.9945 6.4 9.88458 6.4 8.72727ZM25.6 8.72727H19.2V6.54545H25.6V8.72727ZM25.6 15.2727H19.2V13.0909H25.6V15.2727ZM10.6667 15.2727C9.50718 15.2735 8.37076 15.604 7.38444 16.2275C6.39812 16.8509 5.60079 17.7426 5.0816 18.8029L4.3776 20.2385C4.29603 20.405 4.25748 20.5901 4.26564 20.7761C4.27379 20.9622 4.32837 21.143 4.42418 21.3013C4.51999 21.4597 4.65383 21.5903 4.81298 21.6808C4.97212 21.7712 5.15126 21.8185 5.33333 21.8182H16C16.1819 21.8182 16.3608 21.7706 16.5196 21.68C16.6785 21.5893 16.812 21.4587 16.9076 21.3004C17.0031 21.1421 17.0575 20.9614 17.0656 20.7756C17.0736 20.5897 17.0351 20.4049 16.9536 20.2385L16.2517 18.8029C15.7325 17.7426 14.9352 16.8509 13.9489 16.2275C12.9626 15.604 11.8261 15.2735 10.6667 15.2727Z" fill="#D4AF37"/>
</svg>
