<svg width="29" height="27" viewBox="0 0 29 27" fill="none" xmlns="http://www.w3.org/2000/svg">
<path d="M7.79856 1C8.57554 1 11.6835 7.47482 11.6835 8.19424C11.6835 9.63309 9.35252 11.0719 8.57554 12.5108C7.79856 13.9496 9.35252 15.3885 10.9065 16.8273C11.5125 17.3885 14.0144 19.705 15.5683 18.9856C17.1223 18.2662 18.6763 16.1079 20.2302 16.1079C21.0072 16.1079 28 18.9856 28 19.705C28 22.5827 25.6691 24.741 23.3381 25.4604C21.0072 26.1799 19.4532 26.1799 16.3453 25.4604C13.2374 24.741 10.9065 24.0216 7.02158 20.4245C3.13669 16.8273 2.35971 14.6691 1.58273 11.7914C0.805755 8.91367 0.805755 7.47482 1.58273 5.31655C2.35971 3.15827 4.69065 1 7.79856 1Z" fill="#D4AF37" stroke="#D4AF37" stroke-width="2" stroke-linecap="round" stroke-linejoin="round"/>
</svg>
